<?xml version="1.0" standalone="no"?>
<!DOCTYPE svg PUBLIC "-//W3C//DTD SVG 20010904//EN" "http://www.w3.org/TR/2001/REC-SVG-20010904/DTD/svg10.dtd">
<svg version="1.0" xmlns="http://www.w3.org/2000/svg" width="351.000000pt" height="351.000000pt" viewBox="0 0 351.000000 351.000000" preserveAspectRatio="xMidYMid meet">
    <g transform="translate(0.000000,351.000000) scale(0.100000,-0.100000)" fill="currentColor" stroke="none">
        <path d="M2503 2948 c-23 -14 -83 -91 -83 -108 0 -5 5 -10 10 -10 6 0 15 -12
21 -27 l11 -28 12 27 c30 69 79 87 115 42 34 -44 24 -123 -21 -171 -30 -32
-110 -55 -197 -57 -54 -1 -80 -5 -89 -16 -12 -13 -13 -13 -8 3 7 21 -27 37
-80 37 -25 0 -44 -9 -73 -36 -37 -33 -43 -35 -84 -29 -88 13 -212 -25 -251
-77 -16 -23 -18 -32 -8 -53 8 -17 20 -25 37 -25 14 0 25 -4 25 -9 0 -11 -53
-22 -60 -12 -18 27 -192 16 -252 -15 -17 -9 -67 -51 -111 -94 -71 -68 -80 -80
-68 -94 9 -10 10 -16 2 -16 -6 0 -11 5 -11 12 0 6 -9 3 -20 -7 -26 -23 -80
-132 -80 -159 1 -14 8 -7 23 24 32 65 127 121 127 75 0 -8 5 -15 10 -15 6 0 8
-11 4 -26 -5 -18 -3 -25 4 -20 7 4 9 -8 6 -36 -3 -24 -6 -60 -8 -81 -3 -26
-20 -60 -55 -108 -28 -39 -49 -74 -46 -78 2 -5 -4 -11 -14 -14 -19 -5 -55 -92
-45 -108 3 -5 0 -9 -6 -9 -8 0 -11 -17 -8 -50 3 -47 1 -51 -22 -56 -96 -21
-305 -103 -384 -151 -32 -20 -96 -72 -141 -117 -66 -64 -91 -97 -120 -157
-121 -255 19 -508 376 -679 120 -57 297 -110 454 -137 168 -28 565 -26 730 4
135 25 259 59 374 103 195 75 374 219 441 355 33 67 35 75 35 176 0 101 -1
108 -37 181 -71 142 -224 268 -423 347 -102 41 -112 47 -142 91 -22 33 -40 81
-58 156 -24 103 -59 231 -72 264 -3 8 -6 39 -7 68 -1 35 -6 56 -16 62 -10 7
-11 10 -2 10 8 0 12 18 12 57 0 56 1 58 55 110 66 64 111 93 146 93 30 0 57
24 39 35 -18 11 -11 23 18 30 42 10 112 46 112 57 0 6 -10 8 -22 5 -13 -3 -41
-9 -63 -13 l-40 -7 86 89 c47 49 94 104 103 122 40 78 29 197 -24 247 -33 32
-102 43 -137 23z m-258 -347 c-3 -6 -11 -11 -17 -11 -6 0 -6 6 2 15 14 17 26
13 15 -4z m-35 -69 c0 -13 -12 -22 -22 -16 -10 6 -1 24 13 24 5 0 9 -4 9 -8z
m-80 -17 c0 -8 -4 -15 -10 -15 -5 0 -7 7 -4 15 4 8 8 15 10 15 2 0 4 -7 4 -15z
m341 -41 c-11 -25 -17 -31 -19 -19 -3 14 -8 13 -33 -11 -27 -26 -29 -27 -29
-7 0 15 14 29 43 46 56 33 57 33 38 -9z m-161 6 c0 -5 -2 -10 -4 -10 -3 0 -8
5 -11 10 -3 6 -1 10 4 10 6 0 11 -4 11 -10z m-168 -42 c-7 -7 -12 -8 -12 -2 0
6 3 14 7 17 3 4 9 5 12 2 2 -3 -1 -11 -7 -17z m168 -22 c0 -3 -4 -8 -10 -11
-5 -3 -10 -1 -10 4 0 6 5 11 10 11 6 0 10 -2 10 -4z m-376 -41 c-6 -16 -24
-21 -24 -7 0 11 11 22 21 22 5 0 6 -7 3 -15z m41 5 c-3 -5 -11 -10 -16 -10 -6
0 -7 5 -4 10 3 6 11 10 16 10 6 0 7 -4 4 -10z m-365 -50 c0 -5 -4 -10 -10 -10
-5 0 -10 5 -10 10 0 6 5 10 10 10 6 0 10 -4 10 -10z m147 -12 c-3 -8 -6 -5 -6
6 -1 11 2 17 5 13 3 -3 4 -12 1 -19z m103 -9 c0 -11 -4 -17 -10 -14 -5 3 -10
13 -10 21 0 8 5 14 10 14 6 0 10 -9 10 -21z m35 -8 c-3 -6 -11 -11 -17 -11 -6
0 -6 6 2 15 14 17 26 13 15 -4z m-75 -11 c0 -5 -5 -10 -11 -10 -5 0 -7 5 -4
10 3 6 8 10 11 10 2 0 4 -4 4 -10z m-20 -30 c0 -5 -5 -10 -11 -10 -5 0 -7 5
-4 10 3 6 8 10 11 10 2 0 4 -4 4 -10z m-68 -42 c-8 -8 -9 -4 -5 13 4 13 8 18
11 10 2 -7 -1 -18 -6 -23z m188 22 c0 -5 -2 -10 -4 -10 -3 0 -8 5 -11 10 -3 6
-1 10 4 10 6 0 11 -4 11 -10z m67 -31 c-11 -6 -25 -25 -33 -43 -9 -22 -13 -25
-14 -12 0 21 37 66 54 66 6 0 3 -5 -7 -11z m13 -19 c0 -5 -5 -10 -11 -10 -5 0
-7 5 -4 10 3 6 8 10 11 10 2 0 4 -4 4 -10z m10 -70 c0 -10 6 -21 13 -23 9 -4
9 -6 -1 -6 -7 -1 -17 11 -22 25 -13 32 -12 37 0 29 6 -3 10 -15 10 -25z m-250
6 c0 -3 -4 -8 -10 -11 -5 -3 -10 -1 -10 4 0 6 5 11 10 11 6 0 10 -2 10 -4z
m392 -28 c-7 -7 -12 -8 -12 -2 0 6 3 14 7 17 3 4 9 5 12 2 2 -3 -1 -11 -7 -17z
m-222 -12 c0 -3 -4 -8 -10 -11 -5 -3 -10 -1 -10 4 0 6 5 11 10 11 6 0 10 -2
10 -4z m-130 -31 c0 -8 -2 -15 -4 -15 -2 0 -6 7 -10 15 -3 8 -1 15 4 15 6 0
10 -7 10 -15z m90 5 c0 -5 -4 -10 -10 -10 -5 0 -10 5 -10 10 0 6 5 10 10 10 6
0 10 -4 10 -10z m-64 -47 c-10 -10 -19 5 -10 18 6 11 8 11 12 0 2 -7 1 -15 -2
-18z m-359 -5 c-3 -8 -6 -5 -6 6 -1 11 2 17 5 13 3 -3 4 -12 1 -19z m177 -117
c-16 -15 -16 -15 -9 4 4 11 11 34 14 50 l6 30 3 -34 c2 -22 -2 -39 -14 -50z
m-4 59 c0 -5 -4 -10 -10 -10 -5 0 -10 5 -10 10 0 6 5 10 10 10 6 0 10 -4 10
-10z m158 -15 c-3 -3 -13 -2 -22 1 -14 5 -15 9 -4 15 13 8 36 -6 26 -16z m117
15 c-3 -5 -11 -10 -16 -10 -6 0 -7 5 -4 10 3 6 11 10 16 10 6 0 7 -4 4 -10z
m169 -5 c-7 -16 -24 -21 -24 -6 0 8 7 13 27 20 1 1 0 -6 -3 -14z m46 5 c0 -5
-5 -10 -11 -10 -5 0 -7 5 -4 10 3 6 8 10 11 10 2 0 4 -4 4 -10z m-301 -36 c-6
-7 -15 -11 -21 -8 -5 3 -4 12 3 20 6 7 15 11 21 8 5 -3 4 -12 -3 -20z m-243 1
c-21 -16 -32 -13 -21 4 3 6 14 11 23 11 15 -1 15 -2 -2 -15z m644 1 c0 -3 -4
-8 -10 -11 -5 -3 -10 -1 -10 4 0 6 5 11 10 11 6 0 10 -2 10 -4z m-640 -26 c0
-5 -5 -10 -11 -10 -5 0 -7 5 -4 10 3 6 8 10 11 10 2 0 4 -4 4 -10z m420 -10
c0 -11 -4 -20 -10 -20 -5 0 -10 9 -10 20 0 11 5 20 10 20 6 0 10 -9 10 -20z
m-73 -27 c-3 -21 -16 -89 -28 -151 l-23 -113 -90 3 -91 3 -3 94 c-2 54 2 107
8 122 11 25 46 49 74 49 8 0 18 6 24 13 6 6 38 13 72 15 l62 2 -5 -37z m113
19 c0 -13 -12 -22 -22 -16 -10 6 -1 24 13 24 5 0 9 -4 9 -8z m-650 -17 c0 -8
-4 -15 -10 -15 -5 0 -7 7 -4 15 4 8 8 15 10 15 2 0 4 -7 4 -15z m750 -35 c0
-5 -4 -10 -10 -10 -5 0 -10 5 -10 10 0 6 5 10 10 10 6 0 10 -4 10 -10z m-780
-45 c0 -8 -4 -15 -10 -15 -5 0 -10 7 -10 15 0 8 5 15 10 15 6 0 10 -7 10 -15z
m765 -5 c-3 -5 -2 -10 4 -10 6 0 8 -7 5 -15 -4 -9 3 -37 14 -63 25 -57 37
-118 25 -125 -7 -5 -114 9 -139 17 -13 5 51 186 70 198 16 11 28 10 21 -2z
m-725 -9 c0 -12 -20 -25 -27 -18 -7 7 6 27 18 27 5 0 9 -4 9 -9z m190 -1 c0
-5 -4 -10 -10 -10 -5 0 -10 5 -10 10 0 6 5 10 10 10 6 0 10 -4 10 -10z m-47
-90 c4 -40 4 -76 0 -81 -4 -4 -34 -10 -65 -14 -56 -7 -57 -7 -72 23 -25 49
-20 69 27 102 23 16 46 33 52 38 5 5 18 8 30 7 17 -1 21 -11 28 -75z m202
-302 c-11 -50 -35 -170 -35 -179 0 -5 42 -9 93 -9 211 0 235 -37 180 -287
l-26 -123 -69 0 c-37 0 -68 3 -68 8 0 4 12 65 27 135 33 159 32 162 -85 162
l-76 0 -28 -130 c-15 -71 -30 -140 -33 -152 -5 -21 -11 -23 -70 -23 -57 0 -65
2 -65 19 0 10 27 148 60 306 33 158 60 289 60 291 0 2 32 4 70 4 68 0 70 -1
65 -22z m-349 -209 c24 -11 52 -35 64 -53 29 -47 27 -135 -4 -201 -46 -98
-101 -126 -263 -133 l-111 -4 -14 -77 -13 -76 -63 -3 c-45 -2 -64 1 -67 10 -3
8 17 135 45 283 27 148 50 270 50 272 0 2 75 3 167 3 148 0 171 -2 209 -21z
m1055 10 c101 -34 136 -137 86 -259 -41 -100 -123 -140 -288 -140 -90 0 -86 4
-103 -94 l-11 -61 -65 0 -65 0 2 40 c2 34 45 276 84 473 l10 52 158 0 c92 0
172 -5 192 -11z m-1127 -615 c23 -22 20 -34 -9 -34 -14 0 -25 5 -25 10 0 6 -7
10 -15 10 -27 0 -16 -20 23 -37 42 -20 53 -51 27 -77 -31 -30 -105 -16 -105
21 0 16 32 17 48 1 9 -9 15 -9 23 -1 9 9 2 16 -27 30 -42 19 -55 52 -34 79 16
19 75 18 94 -2z m157 -24 c10 -6 19 -18 19 -26 0 -13 -7 -15 -34 -10 -26 5
-35 3 -40 -10 -11 -28 11 -43 52 -37 l37 6 -19 -21 c-26 -30 -80 -30 -100 0
-44 62 18 133 85 98z m149 -11 c0 -10 -9 -21 -20 -24 -16 -5 -20 -15 -20 -46
0 -32 -3 -39 -20 -39 -18 0 -20 7 -20 64 l0 65 40 -2 c31 -1 40 -5 40 -18z
m168 -46 l3 -62 -53 0 c-62 1 -88 19 -88 61 0 44 31 67 87 65 l48 -2 3 -62z
m165 50 c22 -20 22 -76 0 -98 -10 -11 -27 -15 -45 -13 -26 4 -28 2 -28 -29 0
-26 -4 -33 -20 -33 -19 0 -20 7 -20 94 l0 94 48 0 c29 0 54 -6 65 -15z m167
-3 c11 -11 20 -29 20 -40 0 -17 -7 -20 -46 -20 -25 0 -43 -4 -39 -9 3 -5 21
-7 40 -4 36 6 44 -4 23 -25 -17 -17 -68 -15 -90 5 -40 36 -8 113 47 113 14 0
34 -9 45 -20z m140 -1 c0 -9 -7 -19 -15 -23 -10 -3 -15 -19 -15 -46 0 -33 -3
-40 -20 -40 -18 0 -20 7 -20 65 l0 65 35 -3 c25 -1 35 -7 35 -18z"/>
        <path d="M1140 1023 c-6 -32 -15 -77 -19 -101 -7 -35 -6 -45 6 -49 24 -9 140
5 171 21 42 22 63 83 49 138 -9 33 -53 48 -139 48 l-57 0 -11 -57z"/>
        <path d="M2220 1025 c-7 -32 -13 -79 -14 -104 l-1 -46 65 0 c113 1 160 37 160
123 0 58 -24 74 -119 80 l-79 4 -12 -57z"/>
        <path d="M1714 486 c-8 -21 13 -46 32 -39 20 8 13 47 -9 51 -9 2 -20 -4 -23
-12z"/>
        <path d="M1904 486 c-8 -21 13 -46 32 -39 20 8 13 47 -9 51 -9 2 -20 -4 -23
-12z"/>
        <path d="M2088 493 c7 -3 16 -2 19 1 4 3 -2 6 -13 5 -11 0 -14 -3 -6 -6z"/>
    </g>
</svg>
